<svg width="118" height="36" viewBox="0 0 118 36" fill="none" xmlns="http://www.w3.org/2000/svg">
<rect width="118" height="36" fill="#D2AC43"/>
<path d="M17.3453 10.8C17.452 11.2267 17.5053 11.76 17.5053 12.4C17.5053 13.0133 17.452 13.5467 17.3453 14C17.452 14.4267 17.5053 14.96 17.5053 15.6C17.5053 16.2133 17.452 16.7467 17.3453 17.2C17.452 17.6267 17.5053 18.16 17.5053 18.8C17.5053 19.4133 17.452 19.9467 17.3453 20.4C17.452 20.8267 17.5053 21.36 17.5053 22C17.5053 22.6133 17.452 23.1467 17.3453 23.6C17.452 24.0267 17.5053 24.56 17.5053 25.2C17.5053 25.8133 17.452 26.3467 17.3453 26.8C17.452 27.2267 17.5053 27.76 17.5053 28.4C17.5053 29.0133 17.452 29.5467 17.3453 30H14.1453C14.0386 29.5467 13.9853 29.0133 13.9853 28.4C13.9853 27.76 14.0386 27.2267 14.1453 26.8C14.0386 26.3467 13.9853 25.8133 13.9853 25.2C13.9853 24.56 14.0386 24.0267 14.1453 23.6C14.0386 23.1467 13.9853 22.6133 13.9853 22C13.9853 21.36 14.0386 20.8267 14.1453 20.4C14.0386 19.9467 13.9853 19.4133 13.9853 18.8C13.9853 18.16 14.0386 17.6267 14.1453 17.2C14.0386 16.7467 13.9853 16.2133 13.9853 15.6C13.9853 14.96 14.0386 14.4267 14.1453 14H12.9453C13.052 14.4267 13.1053 14.96 13.1053 15.6C13.1053 16.2133 13.052 16.7467 12.9453 17.2C13.052 17.6267 13.1053 18.16 13.1053 18.8C13.1053 19.4133 13.052 19.9467 12.9453 20.4H12.1453C12.252 20.8267 12.3053 21.36 12.3053 22C12.3053 22.6133 12.252 23.1467 12.1453 23.6C12.252 24.0267 12.3053 24.56 12.3053 25.2C12.3053 25.8133 12.252 26.3467 12.1453 26.8H9.74531C9.63865 26.3467 9.58531 25.8133 9.58531 25.2C9.58531 24.56 9.63865 24.0267 9.74531 23.6C9.63865 23.1467 9.58531 22.6133 9.58531 22C9.58531 21.36 9.63865 20.8267 9.74531 20.4H8.94531C8.83865 19.9467 8.78531 19.4133 8.78531 18.8C8.78531 18.16 8.83865 17.6267 8.94531 17.2C8.83865 16.7467 8.78531 16.2133 8.78531 15.6C8.78531 14.96 8.83865 14.4267 8.94531 14H7.74531C7.85198 14.4267 7.90531 14.96 7.90531 15.6C7.90531 16.2133 7.85198 16.7467 7.74531 17.2C7.85198 17.6267 7.90531 18.16 7.90531 18.8C7.90531 19.4133 7.85198 19.9467 7.74531 20.4C7.85198 20.8267 7.90531 21.36 7.90531 22C7.90531 22.6133 7.85198 23.1467 7.74531 23.6C7.85198 24.0267 7.90531 24.56 7.90531 25.2C7.90531 25.8133 7.85198 26.3467 7.74531 26.8C7.85198 27.2267 7.90531 27.76 7.90531 28.4C7.90531 29.0133 7.85198 29.5467 7.74531 30H4.54531C4.43865 29.5467 4.38531 29.0133 4.38531 28.4C4.38531 27.76 4.43865 27.2267 4.54531 26.8C4.43865 26.3467 4.38531 25.8133 4.38531 25.2C4.38531 24.56 4.43865 24.0267 4.54531 23.6C4.43865 23.1467 4.38531 22.6133 4.38531 22C4.38531 21.36 4.43865 20.8267 4.54531 20.4C4.43865 19.9467 4.38531 19.4133 4.38531 18.8C4.38531 18.16 4.43865 17.6267 4.54531 17.2C4.43865 16.7467 4.38531 16.2133 4.38531 15.6C4.38531 14.96 4.43865 14.4267 4.54531 14C4.43865 13.5467 4.38531 13.0133 4.38531 12.4C4.38531 11.76 4.43865 11.2267 4.54531 10.8C4.43865 10.3467 4.38531 9.81333 4.38531 9.2C4.38531 8.56 4.43865 8.02667 4.54531 7.6H8.54531C8.65198 8.02667 8.70531 8.56 8.70531 9.2C8.70531 9.81333 8.65198 10.3467 8.54531 10.8H9.74531C9.85198 11.2267 9.90531 11.76 9.90531 12.4C9.90531 13.0133 9.85198 13.5467 9.74531 14H10.3453C10.452 14.4267 10.5053 14.96 10.5053 15.6C10.5053 16.2133 10.452 16.7467 10.3453 17.2H11.5453C11.4386 16.7467 11.3853 16.2133 11.3853 15.6C11.3853 14.96 11.4386 14.4267 11.5453 14H12.1453C12.0386 13.5467 11.9853 13.0133 11.9853 12.4C11.9853 11.76 12.0386 11.2267 12.1453 10.8H13.3453C13.2386 10.3467 13.1853 9.81333 13.1853 9.2C13.1853 8.56 13.2386 8.02667 13.3453 7.6H17.3453C17.452 8.02667 17.5053 8.56 17.5053 9.2C17.5053 9.81333 17.452 10.3467 17.3453 10.8ZM33.3609 26.8C33.4676 27.2267 33.5209 27.76 33.5209 28.4C33.5209 29.0133 33.4676 29.5467 33.3609 30H30.1609C30.0543 29.5467 30.0009 29.0133 30.0009 28.4C30.0009 27.76 30.0543 27.2267 30.1609 26.8H28.5609C28.4543 26.3467 28.4009 25.8133 28.4009 25.2C28.4009 24.56 28.4543 24.0267 28.5609 23.6H23.7609C23.8676 24.0267 23.9209 24.56 23.9209 25.2C23.9209 25.8133 23.8676 26.3467 23.7609 26.8H28.5609C28.6676 27.2267 28.7209 27.76 28.7209 28.4C28.7209 29.0133 28.6676 29.5467 28.5609 30H22.1609C22.0543 29.5467 22.0009 29.0133 22.0009 28.4C22.0009 27.76 22.0543 27.2267 22.1609 26.8H20.5609C20.4543 26.3467 20.4009 25.8133 20.4009 25.2C20.4009 24.56 20.4543 24.0267 20.5609 23.6H22.1609C22.0543 23.1467 22.0009 22.6133 22.0009 22C22.0009 21.36 22.0543 20.8267 22.1609 20.4H28.5609C28.4543 19.9467 28.4009 19.4133 28.4009 18.8C28.4009 18.16 28.4543 17.6267 28.5609 17.2H22.9609C22.8543 16.7467 22.8009 16.2133 22.8009 15.6C22.8009 14.96 22.8543 14.4267 22.9609 14H30.1609C30.2676 14.4267 30.3209 14.96 30.3209 15.6C30.3209 16.2133 30.2676 16.7467 30.1609 17.2H31.7609C31.8676 17.6267 31.9209 18.16 31.9209 18.8C31.9209 19.4133 31.8676 19.9467 31.7609 20.4C31.8676 20.8267 31.9209 21.36 31.9209 22C31.9209 22.6133 31.8676 23.1467 31.7609 23.6C31.8676 24.0267 31.9209 24.56 31.9209 25.2C31.9209 25.8133 31.8676 26.3467 31.7609 26.8H33.3609ZM47.7766 26.8C47.8832 27.2267 47.9366 27.76 47.9366 28.4C47.9366 29.0133 47.8832 29.5467 47.7766 30H41.3766C41.2699 29.5467 41.2166 29.0133 41.2166 28.4C41.2166 27.76 41.2699 27.2267 41.3766 26.8H39.7766C39.6699 26.3467 39.6166 25.8133 39.6166 25.2C39.6166 24.56 39.6699 24.0267 39.7766 23.6C39.6699 23.1467 39.6166 22.6133 39.6166 22C39.6166 21.36 39.6699 20.8267 39.7766 20.4C39.6699 19.9467 39.6166 19.4133 39.6166 18.8C39.6166 18.16 39.6699 17.6267 39.7766 17.2H36.5766C36.4699 16.7467 36.4166 16.2133 36.4166 15.6C36.4166 14.96 36.4699 14.4267 36.5766 14H39.7766C39.6699 13.5467 39.6166 13.0133 39.6166 12.4C39.6166 11.76 39.6699 11.2267 39.7766 10.8C39.6699 10.3467 39.6166 9.81333 39.6166 9.2C39.6166 8.56 39.6699 8.02667 39.7766 7.6H42.9766C43.0832 8.02667 43.1366 8.56 43.1366 9.2C43.1366 9.81333 43.0832 10.3467 42.9766 10.8C43.0832 11.2267 43.1366 11.76 43.1366 12.4C43.1366 13.0133 43.0832 13.5467 42.9766 14H47.7766C47.8832 14.4267 47.9366 14.96 47.9366 15.6C47.9366 16.2133 47.8832 16.7467 47.7766 17.2H42.9766C43.0832 17.6267 43.1366 18.16 43.1366 18.8C43.1366 19.4133 43.0832 19.9467 42.9766 20.4C43.0832 20.8267 43.1366 21.36 43.1366 22C43.1366 22.6133 43.0832 23.1467 42.9766 23.6C43.0832 24.0267 43.1366 24.56 43.1366 25.2C43.1366 25.8133 43.0832 26.3467 42.9766 26.8H47.7766ZM55.9522 15.6C55.9522 16.2133 55.8989 16.7467 55.7922 17.2H56.9922C57.0989 17.6267 57.1522 18.16 57.1522 18.8C57.1522 19.4133 57.0989 19.9467 56.9922 20.4H55.7922C55.8989 20.8267 55.9522 21.36 55.9522 22C55.9522 22.6133 55.8989 23.1467 55.7922 23.6C55.8989 24.0267 55.9522 24.56 55.9522 25.2C55.9522 25.8133 55.8989 26.3467 55.7922 26.8C55.8989 27.2267 55.9522 27.76 55.9522 28.4C55.9522 29.0133 55.8989 29.5467 55.7922 30H52.5922C52.4855 29.5467 52.4322 29.0133 52.4322 28.4C52.4322 27.76 52.4855 27.2267 52.5922 26.8C52.4855 26.3467 52.4322 25.8133 52.4322 25.2C52.4322 24.56 52.4855 24.0267 52.5922 23.6C52.4855 23.1467 52.4322 22.6133 52.4322 22C52.4322 21.36 52.4855 20.8267 52.5922 20.4C52.4855 19.9467 52.4322 19.4133 52.4322 18.8C52.4322 18.16 52.4855 17.6267 52.5922 17.2C52.4855 16.7467 52.4322 16.2133 52.4322 15.6C52.4322 14.96 52.4855 14.4267 52.5922 14C52.4855 13.5467 52.4322 13.0133 52.4322 12.4C52.4322 11.76 52.4855 11.2267 52.5922 10.8C52.4855 10.3467 52.4322 9.81333 52.4322 9.2C52.4322 8.56 52.4855 8.02667 52.5922 7.6H55.7922C55.8989 8.02667 55.9522 8.56 55.9522 9.2C55.9522 9.81333 55.8989 10.3467 55.7922 10.8C55.8989 11.2267 55.9522 11.76 55.9522 12.4C55.9522 13.0133 55.8989 13.5467 55.7922 14C55.8989 14.4267 55.9522 14.96 55.9522 15.6ZM65.3922 20.4C65.4989 20.8267 65.5522 21.36 65.5522 22C65.5522 22.6133 65.4989 23.1467 65.3922 23.6C65.4989 24.0267 65.5522 24.56 65.5522 25.2C65.5522 25.8133 65.4989 26.3467 65.3922 26.8C65.4989 27.2267 65.5522 27.76 65.5522 28.4C65.5522 29.0133 65.4989 29.5467 65.3922 30H62.1922C62.0855 29.5467 62.0322 29.0133 62.0322 28.4C62.0322 27.76 62.0855 27.2267 62.1922 26.8C62.0855 26.3467 62.0322 25.8133 62.0322 25.2C62.0322 24.56 62.0855 24.0267 62.1922 23.6C62.0855 23.1467 62.0322 22.6133 62.0322 22C62.0322 21.36 62.0855 20.8267 62.1922 20.4C62.0855 19.9467 62.0322 19.4133 62.0322 18.8C62.0322 18.16 62.0855 17.6267 62.1922 17.2H56.9922C56.8855 16.7467 56.8322 16.2133 56.8322 15.6C56.8322 14.96 56.8855 14.4267 56.9922 14H63.3922C63.4989 14.4267 63.5522 14.96 63.5522 15.6C63.5522 16.2133 63.4989 16.7467 63.3922 17.2H65.3922C65.4989 17.6267 65.5522 18.16 65.5522 18.8C65.5522 19.4133 65.4989 19.9467 65.3922 20.4ZM93.1834 9.2C93.1834 9.81333 93.1301 10.3467 93.0234 10.8H89.0234C88.9168 10.3467 88.8634 9.81333 88.8634 9.2C88.8634 8.56 88.9168 8.02667 89.0234 7.6H93.0234C93.1301 8.02667 93.1834 8.56 93.1834 9.2ZM89.0234 23.6C89.1301 24.0267 89.1834 24.56 89.1834 25.2C89.1834 25.8133 89.1301 26.3467 89.0234 26.8H87.0234C86.9168 26.3467 86.8634 25.8133 86.8634 25.2C86.8634 24.56 86.9168 24.0267 87.0234 23.6H85.8234C85.7168 23.1467 85.6634 22.6133 85.6634 22C85.6634 21.36 85.7168 20.8267 85.8234 20.4C85.7168 19.9467 85.6634 19.4133 85.6634 18.8C85.6634 18.16 85.7168 17.6267 85.8234 17.2C85.7168 16.7467 85.6634 16.2133 85.6634 15.6C85.6634 14.96 85.7168 14.4267 85.8234 14H87.0234C86.9168 13.5467 86.8634 13.0133 86.8634 12.4C86.8634 11.76 86.9168 11.2267 87.0234 10.8H89.0234C89.1301 11.2267 89.1834 11.76 89.1834 12.4C89.1834 13.0133 89.1301 13.5467 89.0234 14C89.1301 14.4267 89.1834 14.96 89.1834 15.6C89.1834 16.2133 89.1301 16.7467 89.0234 17.2C89.1301 17.6267 89.1834 18.16 89.1834 18.8C89.1834 19.4133 89.1301 19.9467 89.0234 20.4C89.1301 20.8267 89.1834 21.36 89.1834 22C89.1834 22.6133 89.1301 23.1467 89.0234 23.6ZM96.2234 17.2C96.3301 17.6267 96.3834 18.16 96.3834 18.8C96.3834 19.4133 96.3301 19.9467 96.2234 20.4C96.3301 20.8267 96.3834 21.36 96.3834 22C96.3834 22.6133 96.3301 23.1467 96.2234 23.6H95.0234C95.1301 24.0267 95.1834 24.56 95.1834 25.2C95.1834 25.8133 95.1301 26.3467 95.0234 26.8H93.0234C92.9168 26.3467 92.8634 25.8133 92.8634 25.2C92.8634 24.56 92.9168 24.0267 93.0234 23.6C92.9168 23.1467 92.8634 22.6133 92.8634 22C92.8634 21.36 92.9168 20.8267 93.0234 20.4C92.9168 19.9467 92.8634 19.4133 92.8634 18.8C92.8634 18.16 92.9168 17.6267 93.0234 17.2C92.9168 16.7467 92.8634 16.2133 92.8634 15.6C92.8634 14.96 92.9168 14.4267 93.0234 14C92.9168 13.5467 92.8634 13.0133 92.8634 12.4C92.8634 11.76 92.9168 11.2267 93.0234 10.8H95.0234C95.1301 11.2267 95.1834 11.76 95.1834 12.4C95.1834 13.0133 95.1301 13.5467 95.0234 14H96.2234C96.3301 14.4267 96.3834 14.96 96.3834 15.6C96.3834 16.2133 96.3301 16.7467 96.2234 17.2ZM88.8634 28.4C88.8634 27.76 88.9168 27.2267 89.0234 26.8H93.0234C93.1301 27.2267 93.1834 27.76 93.1834 28.4C93.1834 29.0133 93.1301 29.5467 93.0234 30H89.0234C88.9168 29.5467 88.8634 29.0133 88.8634 28.4ZM111.839 26.8C111.946 27.2267 111.999 27.76 111.999 28.4C111.999 29.0133 111.946 29.5467 111.839 30H102.239C102.132 29.5467 102.079 29.0133 102.079 28.4C102.079 27.76 102.132 27.2267 102.239 26.8H105.439C105.332 26.3467 105.279 25.8133 105.279 25.2C105.279 24.56 105.332 24.0267 105.439 23.6C105.332 23.1467 105.279 22.6133 105.279 22C105.279 21.36 105.332 20.8267 105.439 20.4C105.332 19.9467 105.279 19.4133 105.279 18.8C105.279 18.16 105.332 17.6267 105.439 17.2C105.332 16.7467 105.279 16.2133 105.279 15.6C105.279 14.96 105.332 14.4267 105.439 14H103.039C102.932 13.5467 102.879 13.0133 102.879 12.4C102.879 11.76 102.932 11.2267 103.039 10.8H105.439C105.332 10.3467 105.279 9.81333 105.279 9.2C105.279 8.56 105.332 8.02667 105.439 7.6H108.639C108.746 8.02667 108.799 8.56 108.799 9.2C108.799 9.81333 108.746 10.3467 108.639 10.8C108.746 11.2267 108.799 11.76 108.799 12.4C108.799 13.0133 108.746 13.5467 108.639 14C108.746 14.4267 108.799 14.96 108.799 15.6C108.799 16.2133 108.746 16.7467 108.639 17.2C108.746 17.6267 108.799 18.16 108.799 18.8C108.799 19.4133 108.746 19.9467 108.639 20.4C108.746 20.8267 108.799 21.36 108.799 22C108.799 22.6133 108.746 23.1467 108.639 23.6C108.746 24.0267 108.799 24.56 108.799 25.2C108.799 25.8133 108.746 26.3467 108.639 26.8H111.839Z" fill="#211C13"/>
</svg>
