<svg width="711" height="268" viewBox="0 0 711 268" fill="none" xmlns="http://www.w3.org/2000/svg">
<path d="M6.48413 3H3.48413V6V11.8182H6.48413V23.4545H3.48413V35.0909H6.48413V46.7273H3.48413V58.3636H6.48413V70H3.48413V81.6364H6.48413V93.2727H3.48413V104.909H6.48413V116.545H3.48413V128.182H6.48413V139.818H3.48413V151.455H6.48413V163.091H3.48413V174.727H6.48413V186.364H3.48413V198H6.48413V209.636H3.48413V221.273H6.48413V232.909H3.48413V244.546H6.48413V256.182H3.48413V262V265H6.48413H12.5004V262H24.5329V265H36.5654V262H48.5979V265H60.6304V262H72.6629V265H84.6954V262H96.7279V265H108.76V262H120.793V265H132.825V262H144.858V265H156.89V262H168.923V265H180.955V262H192.988V265H205.02V262H217.053V265H229.085V262H241.118V265H253.15V262H265.183V265H277.215V262H289.248V265H301.28V262H313.313V265H325.345V262H337.378V265H349.41V262H361.443V265H373.475V262H385.508V265H397.54V262H409.573V265H421.605V262H433.638V265H445.671V262H457.703V265H469.735V262H481.768V265H493.801V262H505.833V265H517.865V262H529.898V265H541.931V262H553.963V265H565.996V262H578.028V265H590.061V262H602.093V265H614.126V262H626.158V265H638.191V262H650.223V265H662.256V262H674.288V265H686.321V262H698.353V265H704.37H707.37V262V256.182H704.37V244.545H707.37V232.909H704.37V221.273H707.37V209.636H704.37V198H707.37V186.364H704.37V174.727H707.37V163.091H704.37V151.455H707.37V139.818H704.37V128.182H707.37V116.545H704.37V104.909H707.37V93.2727H704.37V81.6363H707.37V70H704.37V58.3636H707.37V46.7272H704.37V35.0909H707.37V23.4545H704.37V11.8181H707.37V6V3H704.37H698.353V6H686.321V3H674.288V6H662.256V3H650.223V6H638.191V3H626.158V6H614.126V3H602.093V6H590.061V3H578.028V6H565.996V3H553.963V6H541.931V3H529.898V6H517.866V3H505.833V6H493.801V3H481.768V6H469.736V3H457.703V6H445.671V3H433.638V6H421.606V3H409.573V6H397.541V3H385.508V6H373.476V3H361.443V6H349.411V3H337.378V6H325.346V3H313.313V6H301.281V3H289.248V6H277.216V3H265.183V6H253.151V3H241.118V6H229.086V3H217.053V6H205.021V3H192.988V6H180.956V3H168.923V6H156.891V3H144.858V6H132.826V3H120.793V6H108.76V3H96.7279V6H84.6954V3H72.6628V6H60.6303V3H48.5978V6H36.5652V3H24.5327V6H12.5002V3H6.48413Z" fill="#352B17" stroke="#D2AC43" stroke-width="6" stroke-dasharray="12 12"/>
</svg>
